<mxfile host="app.diagrams.net" modified="2023-12-31T11:14:20.613Z" agent="Mozilla/5.0 (Windows NT 10.0; Win64; x64) AppleWebKit/537.36 (KHTML, like Gecko) Chrome/120.0.0.0 Safari/537.36" version="22.1.16" etag="BNk3QmiyOzHwl0LSqgQA" type="github">
  <diagram name="第 1 页" id="6vOaz0LtEbp_XkZ6t-C6">
    <mxGraphModel>
      <root>
        <mxCell id="0" />
        <mxCell id="1" parent="0" />
      </root>
    </mxGraphModel>
  </diagram>
</mxfile>
